<mxfile host="app.diagrams.net" agent="Mozilla/5.0 (Windows NT 10.0; Win64; x64) AppleWebKit/537.36 (KHTML, like Gecko) Chrome/135.0.0.0 Safari/537.36 Edg/135.0.0.0" version="26.2.14">
  <diagram name="Страница — 1" id="0_Dnb6BgWCMYKnIincZQ">
    <mxGraphModel dx="2229" dy="917" grid="1" gridSize="10" guides="1" tooltips="1" connect="1" arrows="1" fold="1" page="1" pageScale="1" pageWidth="827" pageHeight="1169" math="0" shadow="0">
      <root>
        <mxCell id="0" />
        <mxCell id="1" parent="0" />
        <mxCell id="07gMhgzr5kwWRLjTosJK-1" value="Order" style="swimlane;fontStyle=1;align=center;verticalAlign=top;childLayout=stackLayout;horizontal=1;startSize=26;horizontalStack=0;resizeParent=1;resizeParentMax=0;resizeLast=0;collapsible=1;marginBottom=0;whiteSpace=wrap;html=1;" vertex="1" parent="1">
          <mxGeometry x="120" y="280" width="160" height="340" as="geometry" />
        </mxCell>
        <mxCell id="07gMhgzr5kwWRLjTosJK-2" value="+ goods: String" style="text;strokeColor=none;fillColor=none;align=left;verticalAlign=top;spacingLeft=4;spacingRight=4;overflow=hidden;rotatable=0;points=[[0,0.5],[1,0.5]];portConstraint=eastwest;whiteSpace=wrap;html=1;" vertex="1" parent="07gMhgzr5kwWRLjTosJK-1">
          <mxGeometry y="26" width="160" height="26" as="geometry" />
        </mxCell>
        <mxCell id="07gMhgzr5kwWRLjTosJK-3" value="+ adress: String" style="text;strokeColor=none;fillColor=none;align=left;verticalAlign=top;spacingLeft=4;spacingRight=4;overflow=hidden;rotatable=0;points=[[0,0.5],[1,0.5]];portConstraint=eastwest;whiteSpace=wrap;html=1;" vertex="1" parent="07gMhgzr5kwWRLjTosJK-1">
          <mxGeometry y="52" width="160" height="26" as="geometry" />
        </mxCell>
        <mxCell id="07gMhgzr5kwWRLjTosJK-4" value="+ id: Integer" style="text;strokeColor=none;fillColor=none;align=left;verticalAlign=top;spacingLeft=4;spacingRight=4;overflow=hidden;rotatable=0;points=[[0,0.5],[1,0.5]];portConstraint=eastwest;whiteSpace=wrap;html=1;" vertex="1" parent="07gMhgzr5kwWRLjTosJK-1">
          <mxGeometry y="78" width="160" height="26" as="geometry" />
        </mxCell>
        <mxCell id="07gMhgzr5kwWRLjTosJK-5" value="&lt;u&gt;- count: Integer&lt;/u&gt;" style="text;strokeColor=none;fillColor=none;align=left;verticalAlign=top;spacingLeft=4;spacingRight=4;overflow=hidden;rotatable=0;points=[[0,0.5],[1,0.5]];portConstraint=eastwest;whiteSpace=wrap;html=1;" vertex="1" parent="07gMhgzr5kwWRLjTosJK-1">
          <mxGeometry y="104" width="160" height="26" as="geometry" />
        </mxCell>
        <mxCell id="07gMhgzr5kwWRLjTosJK-6" value="" style="line;strokeWidth=1;fillColor=none;align=left;verticalAlign=middle;spacingTop=-1;spacingLeft=3;spacingRight=3;rotatable=0;labelPosition=right;points=[];portConstraint=eastwest;strokeColor=inherit;" vertex="1" parent="07gMhgzr5kwWRLjTosJK-1">
          <mxGeometry y="130" width="160" height="8" as="geometry" />
        </mxCell>
        <mxCell id="07gMhgzr5kwWRLjTosJK-7" value="+ ToString(): String" style="text;strokeColor=none;fillColor=none;align=left;verticalAlign=top;spacingLeft=4;spacingRight=4;overflow=hidden;rotatable=0;points=[[0,0.5],[1,0.5]];portConstraint=eastwest;whiteSpace=wrap;html=1;" vertex="1" parent="07gMhgzr5kwWRLjTosJK-1">
          <mxGeometry y="138" width="160" height="26" as="geometry" />
        </mxCell>
        <mxCell id="07gMhgzr5kwWRLjTosJK-8" value="+ WorkDone(client: Client, storekeeper: Storekeeper, courier: Courier): Boolean" style="text;strokeColor=none;fillColor=none;align=left;verticalAlign=top;spacingLeft=4;spacingRight=4;overflow=hidden;rotatable=0;points=[[0,0.5],[1,0.5]];portConstraint=eastwest;whiteSpace=wrap;html=1;" vertex="1" parent="07gMhgzr5kwWRLjTosJK-1">
          <mxGeometry y="164" width="160" height="56" as="geometry" />
        </mxCell>
        <mxCell id="07gMhgzr5kwWRLjTosJK-9" value="+ PayOrder(client: Client, storekeeper: Storekeeper, courier: Courier): Boolean" style="text;strokeColor=none;fillColor=none;align=left;verticalAlign=top;spacingLeft=4;spacingRight=4;overflow=hidden;rotatable=0;points=[[0,0.5],[1,0.5]];portConstraint=eastwest;whiteSpace=wrap;html=1;" vertex="1" parent="07gMhgzr5kwWRLjTosJK-1">
          <mxGeometry y="220" width="160" height="50" as="geometry" />
        </mxCell>
        <mxCell id="07gMhgzr5kwWRLjTosJK-10" value="+ CancelOrder(client: Client, storekeeper: Storekeeper, courier: Courier): Boolean" style="text;strokeColor=none;fillColor=none;align=left;verticalAlign=top;spacingLeft=4;spacingRight=4;overflow=hidden;rotatable=0;points=[[0,0.5],[1,0.5]];portConstraint=eastwest;whiteSpace=wrap;html=1;" vertex="1" parent="07gMhgzr5kwWRLjTosJK-1">
          <mxGeometry y="270" width="160" height="70" as="geometry" />
        </mxCell>
        <mxCell id="07gMhgzr5kwWRLjTosJK-11" value="&lt;i&gt;Status&lt;/i&gt;" style="swimlane;fontStyle=1;align=center;verticalAlign=top;childLayout=stackLayout;horizontal=1;startSize=26;horizontalStack=0;resizeParent=1;resizeParentMax=0;resizeLast=0;collapsible=1;marginBottom=0;whiteSpace=wrap;html=1;" vertex="1" parent="1">
          <mxGeometry x="520" y="280" width="160" height="270" as="geometry" />
        </mxCell>
        <mxCell id="07gMhgzr5kwWRLjTosJK-12" value="" style="line;strokeWidth=1;fillColor=none;align=left;verticalAlign=middle;spacingTop=-1;spacingLeft=3;spacingRight=3;rotatable=0;labelPosition=right;points=[];portConstraint=eastwest;strokeColor=inherit;" vertex="1" parent="07gMhgzr5kwWRLjTosJK-11">
          <mxGeometry y="26" width="160" height="8" as="geometry" />
        </mxCell>
        <mxCell id="07gMhgzr5kwWRLjTosJK-13" value="&lt;i&gt;+ GetName(): String&lt;/i&gt;" style="text;strokeColor=none;fillColor=none;align=left;verticalAlign=top;spacingLeft=4;spacingRight=4;overflow=hidden;rotatable=0;points=[[0,0.5],[1,0.5]];portConstraint=eastwest;whiteSpace=wrap;html=1;" vertex="1" parent="07gMhgzr5kwWRLjTosJK-11">
          <mxGeometry y="34" width="160" height="26" as="geometry" />
        </mxCell>
        <mxCell id="07gMhgzr5kwWRLjTosJK-14" value="&lt;i&gt;+ WorkDone(&lt;/i&gt;&lt;i&gt;order: Order, client: Client, storekeeper: Storekeeper, courier: Courier&lt;/i&gt;&lt;i&gt;): Boolean&lt;/i&gt;" style="text;strokeColor=none;fillColor=none;align=left;verticalAlign=top;spacingLeft=4;spacingRight=4;overflow=hidden;rotatable=0;points=[[0,0.5],[1,0.5]];portConstraint=eastwest;whiteSpace=wrap;html=1;" vertex="1" parent="07gMhgzr5kwWRLjTosJK-11">
          <mxGeometry y="60" width="160" height="70" as="geometry" />
        </mxCell>
        <mxCell id="07gMhgzr5kwWRLjTosJK-15" value="&lt;i&gt;+ PayOrder(&lt;/i&gt;&lt;i&gt;order: Order, client: Client, storekeeper: Storekeeper, courier: Courier&lt;/i&gt;&lt;i&gt;): Boolean&lt;/i&gt;" style="text;strokeColor=none;fillColor=none;align=left;verticalAlign=top;spacingLeft=4;spacingRight=4;overflow=hidden;rotatable=0;points=[[0,0.5],[1,0.5]];portConstraint=eastwest;whiteSpace=wrap;html=1;" vertex="1" parent="07gMhgzr5kwWRLjTosJK-11">
          <mxGeometry y="130" width="160" height="70" as="geometry" />
        </mxCell>
        <mxCell id="07gMhgzr5kwWRLjTosJK-16" value="&lt;i&gt;+ CancelOrder(&lt;/i&gt;&lt;i&gt;order: Order, client: Client, storekeeper: Storekeeper, courier: Courier&lt;/i&gt;&lt;i&gt;): Boolean&lt;/i&gt;" style="text;strokeColor=none;fillColor=none;align=left;verticalAlign=top;spacingLeft=4;spacingRight=4;overflow=hidden;rotatable=0;points=[[0,0.5],[1,0.5]];portConstraint=eastwest;whiteSpace=wrap;html=1;" vertex="1" parent="07gMhgzr5kwWRLjTosJK-11">
          <mxGeometry y="200" width="160" height="70" as="geometry" />
        </mxCell>
        <mxCell id="07gMhgzr5kwWRLjTosJK-17" value="PaymentRequiredStatus" style="swimlane;fontStyle=1;align=center;verticalAlign=top;childLayout=stackLayout;horizontal=1;startSize=26;horizontalStack=0;resizeParent=1;resizeParentMax=0;resizeLast=0;collapsible=1;marginBottom=0;whiteSpace=wrap;html=1;" vertex="1" parent="1">
          <mxGeometry x="120" y="670" width="160" height="420" as="geometry" />
        </mxCell>
        <mxCell id="07gMhgzr5kwWRLjTosJK-18" value="+ name String" style="text;strokeColor=none;fillColor=none;align=left;verticalAlign=top;spacingLeft=4;spacingRight=4;overflow=hidden;rotatable=0;points=[[0,0.5],[1,0.5]];portConstraint=eastwest;whiteSpace=wrap;html=1;" vertex="1" parent="07gMhgzr5kwWRLjTosJK-17">
          <mxGeometry y="26" width="160" height="26" as="geometry" />
        </mxCell>
        <mxCell id="07gMhgzr5kwWRLjTosJK-19" value="" style="line;strokeWidth=1;fillColor=none;align=left;verticalAlign=middle;spacingTop=-1;spacingLeft=3;spacingRight=3;rotatable=0;labelPosition=right;points=[];portConstraint=eastwest;strokeColor=inherit;" vertex="1" parent="07gMhgzr5kwWRLjTosJK-17">
          <mxGeometry y="52" width="160" height="8" as="geometry" />
        </mxCell>
        <mxCell id="07gMhgzr5kwWRLjTosJK-20" value="+ GetName(): string" style="text;strokeColor=none;fillColor=none;align=left;verticalAlign=top;spacingLeft=4;spacingRight=4;overflow=hidden;rotatable=0;points=[[0,0.5],[1,0.5]];portConstraint=eastwest;whiteSpace=wrap;html=1;" vertex="1" parent="07gMhgzr5kwWRLjTosJK-17">
          <mxGeometry y="60" width="160" height="26" as="geometry" />
        </mxCell>
        <mxCell id="07gMhgzr5kwWRLjTosJK-21" value="+ WorkDone(order: Order, client: Client, storekeeper: Storekeeper, courier: Courier): Boolean" style="text;strokeColor=none;fillColor=none;align=left;verticalAlign=top;spacingLeft=4;spacingRight=4;overflow=hidden;rotatable=0;points=[[0,0.5],[1,0.5]];portConstraint=eastwest;whiteSpace=wrap;html=1;" vertex="1" parent="07gMhgzr5kwWRLjTosJK-17">
          <mxGeometry y="86" width="160" height="64" as="geometry" />
        </mxCell>
        <mxCell id="07gMhgzr5kwWRLjTosJK-22" value="+ PayOrder(order: Order, client: Client, storekeeper: Storekeeper, courier: Courier): Boolean" style="text;strokeColor=none;fillColor=none;align=left;verticalAlign=top;spacingLeft=4;spacingRight=4;overflow=hidden;rotatable=0;points=[[0,0.5],[1,0.5]];portConstraint=eastwest;whiteSpace=wrap;html=1;" vertex="1" parent="07gMhgzr5kwWRLjTosJK-17">
          <mxGeometry y="150" width="160" height="60" as="geometry" />
        </mxCell>
        <mxCell id="07gMhgzr5kwWRLjTosJK-106" value="+ CancelOrder(order: Order, client: Client, storekeeper: Storekeeper, courier: Courier): Boolean" style="text;strokeColor=none;fillColor=none;align=left;verticalAlign=top;spacingLeft=4;spacingRight=4;overflow=hidden;rotatable=0;points=[[0,0.5],[1,0.5]];portConstraint=eastwest;whiteSpace=wrap;html=1;" vertex="1" parent="07gMhgzr5kwWRLjTosJK-17">
          <mxGeometry y="210" width="160" height="70" as="geometry" />
        </mxCell>
        <mxCell id="07gMhgzr5kwWRLjTosJK-107" value="+ DelayOrder(order: Order, client: Client, storekeeper: Storekeeper, courier: Courier): Boolean" style="text;strokeColor=none;fillColor=none;align=left;verticalAlign=top;spacingLeft=4;spacingRight=4;overflow=hidden;rotatable=0;points=[[0,0.5],[1,0.5]];portConstraint=eastwest;whiteSpace=wrap;html=1;" vertex="1" parent="07gMhgzr5kwWRLjTosJK-17">
          <mxGeometry y="280" width="160" height="70" as="geometry" />
        </mxCell>
        <mxCell id="07gMhgzr5kwWRLjTosJK-23" value="+ RefundOrder(order: Order, client: Client, storekeeper: Storekeeper, courier: Courier): Boolean" style="text;strokeColor=none;fillColor=none;align=left;verticalAlign=top;spacingLeft=4;spacingRight=4;overflow=hidden;rotatable=0;points=[[0,0.5],[1,0.5]];portConstraint=eastwest;whiteSpace=wrap;html=1;" vertex="1" parent="07gMhgzr5kwWRLjTosJK-17">
          <mxGeometry y="350" width="160" height="70" as="geometry" />
        </mxCell>
        <mxCell id="07gMhgzr5kwWRLjTosJK-24" value="InStorageStatus" style="swimlane;fontStyle=1;align=center;verticalAlign=top;childLayout=stackLayout;horizontal=1;startSize=26;horizontalStack=0;resizeParent=1;resizeParentMax=0;resizeLast=0;collapsible=1;marginBottom=0;whiteSpace=wrap;html=1;" vertex="1" parent="1">
          <mxGeometry x="320" y="670" width="160" height="420" as="geometry" />
        </mxCell>
        <mxCell id="07gMhgzr5kwWRLjTosJK-25" value="+ name String" style="text;strokeColor=none;fillColor=none;align=left;verticalAlign=top;spacingLeft=4;spacingRight=4;overflow=hidden;rotatable=0;points=[[0,0.5],[1,0.5]];portConstraint=eastwest;whiteSpace=wrap;html=1;" vertex="1" parent="07gMhgzr5kwWRLjTosJK-24">
          <mxGeometry y="26" width="160" height="26" as="geometry" />
        </mxCell>
        <mxCell id="07gMhgzr5kwWRLjTosJK-26" value="" style="line;strokeWidth=1;fillColor=none;align=left;verticalAlign=middle;spacingTop=-1;spacingLeft=3;spacingRight=3;rotatable=0;labelPosition=right;points=[];portConstraint=eastwest;strokeColor=inherit;" vertex="1" parent="07gMhgzr5kwWRLjTosJK-24">
          <mxGeometry y="52" width="160" height="8" as="geometry" />
        </mxCell>
        <mxCell id="07gMhgzr5kwWRLjTosJK-27" value="+ GetName(): string" style="text;strokeColor=none;fillColor=none;align=left;verticalAlign=top;spacingLeft=4;spacingRight=4;overflow=hidden;rotatable=0;points=[[0,0.5],[1,0.5]];portConstraint=eastwest;whiteSpace=wrap;html=1;" vertex="1" parent="07gMhgzr5kwWRLjTosJK-24">
          <mxGeometry y="60" width="160" height="26" as="geometry" />
        </mxCell>
        <mxCell id="07gMhgzr5kwWRLjTosJK-28" value="+ WorkDone(order: Order, client: Client, storekeeper: Storekeeper, courier: Courier): Boolean" style="text;strokeColor=none;fillColor=none;align=left;verticalAlign=top;spacingLeft=4;spacingRight=4;overflow=hidden;rotatable=0;points=[[0,0.5],[1,0.5]];portConstraint=eastwest;whiteSpace=wrap;html=1;" vertex="1" parent="07gMhgzr5kwWRLjTosJK-24">
          <mxGeometry y="86" width="160" height="64" as="geometry" />
        </mxCell>
        <mxCell id="07gMhgzr5kwWRLjTosJK-29" value="+ PayOrder(order: Order, client: Client, storekeeper: Storekeeper, courier: Courier): Boolean" style="text;strokeColor=none;fillColor=none;align=left;verticalAlign=top;spacingLeft=4;spacingRight=4;overflow=hidden;rotatable=0;points=[[0,0.5],[1,0.5]];portConstraint=eastwest;whiteSpace=wrap;html=1;" vertex="1" parent="07gMhgzr5kwWRLjTosJK-24">
          <mxGeometry y="150" width="160" height="60" as="geometry" />
        </mxCell>
        <mxCell id="07gMhgzr5kwWRLjTosJK-30" value="+ CancelOrder(order: Order, client: Client, storekeeper: Storekeeper, courier: Courier): Boolean" style="text;strokeColor=none;fillColor=none;align=left;verticalAlign=top;spacingLeft=4;spacingRight=4;overflow=hidden;rotatable=0;points=[[0,0.5],[1,0.5]];portConstraint=eastwest;whiteSpace=wrap;html=1;" vertex="1" parent="07gMhgzr5kwWRLjTosJK-24">
          <mxGeometry y="210" width="160" height="70" as="geometry" />
        </mxCell>
        <mxCell id="07gMhgzr5kwWRLjTosJK-108" value="+ DelayOrder(order: Order, client: Client, storekeeper: Storekeeper, courier: Courier): Boolean" style="text;strokeColor=none;fillColor=none;align=left;verticalAlign=top;spacingLeft=4;spacingRight=4;overflow=hidden;rotatable=0;points=[[0,0.5],[1,0.5]];portConstraint=eastwest;whiteSpace=wrap;html=1;" vertex="1" parent="07gMhgzr5kwWRLjTosJK-24">
          <mxGeometry y="280" width="160" height="70" as="geometry" />
        </mxCell>
        <mxCell id="07gMhgzr5kwWRLjTosJK-109" value="+ RefundOrder(order: Order, client: Client, storekeeper: Storekeeper, courier: Courier): Boolean" style="text;strokeColor=none;fillColor=none;align=left;verticalAlign=top;spacingLeft=4;spacingRight=4;overflow=hidden;rotatable=0;points=[[0,0.5],[1,0.5]];portConstraint=eastwest;whiteSpace=wrap;html=1;" vertex="1" parent="07gMhgzr5kwWRLjTosJK-24">
          <mxGeometry y="350" width="160" height="70" as="geometry" />
        </mxCell>
        <mxCell id="07gMhgzr5kwWRLjTosJK-31" value="InDeliveryStatus" style="swimlane;fontStyle=1;align=center;verticalAlign=top;childLayout=stackLayout;horizontal=1;startSize=26;horizontalStack=0;resizeParent=1;resizeParentMax=0;resizeLast=0;collapsible=1;marginBottom=0;whiteSpace=wrap;html=1;" vertex="1" parent="1">
          <mxGeometry x="520" y="670" width="160" height="420" as="geometry" />
        </mxCell>
        <mxCell id="07gMhgzr5kwWRLjTosJK-32" value="+ name String" style="text;strokeColor=none;fillColor=none;align=left;verticalAlign=top;spacingLeft=4;spacingRight=4;overflow=hidden;rotatable=0;points=[[0,0.5],[1,0.5]];portConstraint=eastwest;whiteSpace=wrap;html=1;" vertex="1" parent="07gMhgzr5kwWRLjTosJK-31">
          <mxGeometry y="26" width="160" height="26" as="geometry" />
        </mxCell>
        <mxCell id="07gMhgzr5kwWRLjTosJK-33" value="" style="line;strokeWidth=1;fillColor=none;align=left;verticalAlign=middle;spacingTop=-1;spacingLeft=3;spacingRight=3;rotatable=0;labelPosition=right;points=[];portConstraint=eastwest;strokeColor=inherit;" vertex="1" parent="07gMhgzr5kwWRLjTosJK-31">
          <mxGeometry y="52" width="160" height="8" as="geometry" />
        </mxCell>
        <mxCell id="07gMhgzr5kwWRLjTosJK-34" value="+ GetName(): string" style="text;strokeColor=none;fillColor=none;align=left;verticalAlign=top;spacingLeft=4;spacingRight=4;overflow=hidden;rotatable=0;points=[[0,0.5],[1,0.5]];portConstraint=eastwest;whiteSpace=wrap;html=1;" vertex="1" parent="07gMhgzr5kwWRLjTosJK-31">
          <mxGeometry y="60" width="160" height="26" as="geometry" />
        </mxCell>
        <mxCell id="07gMhgzr5kwWRLjTosJK-35" value="+ WorkDone(order: Order, client: Client, storekeeper: Storekeeper, courier: Courier): Boolean" style="text;strokeColor=none;fillColor=none;align=left;verticalAlign=top;spacingLeft=4;spacingRight=4;overflow=hidden;rotatable=0;points=[[0,0.5],[1,0.5]];portConstraint=eastwest;whiteSpace=wrap;html=1;" vertex="1" parent="07gMhgzr5kwWRLjTosJK-31">
          <mxGeometry y="86" width="160" height="64" as="geometry" />
        </mxCell>
        <mxCell id="07gMhgzr5kwWRLjTosJK-36" value="+ PayOrder(order: Order, client: Client, storekeeper: Storekeeper, courier: Courier): Boolean" style="text;strokeColor=none;fillColor=none;align=left;verticalAlign=top;spacingLeft=4;spacingRight=4;overflow=hidden;rotatable=0;points=[[0,0.5],[1,0.5]];portConstraint=eastwest;whiteSpace=wrap;html=1;" vertex="1" parent="07gMhgzr5kwWRLjTosJK-31">
          <mxGeometry y="150" width="160" height="60" as="geometry" />
        </mxCell>
        <mxCell id="07gMhgzr5kwWRLjTosJK-37" value="+ CancelOrder(order: Order, client: Client, storekeeper: Storekeeper, courier: Courier): Boolean" style="text;strokeColor=none;fillColor=none;align=left;verticalAlign=top;spacingLeft=4;spacingRight=4;overflow=hidden;rotatable=0;points=[[0,0.5],[1,0.5]];portConstraint=eastwest;whiteSpace=wrap;html=1;" vertex="1" parent="07gMhgzr5kwWRLjTosJK-31">
          <mxGeometry y="210" width="160" height="70" as="geometry" />
        </mxCell>
        <mxCell id="07gMhgzr5kwWRLjTosJK-110" value="+ DelayOrder(order: Order, client: Client, storekeeper: Storekeeper, courier: Courier): Boolean" style="text;strokeColor=none;fillColor=none;align=left;verticalAlign=top;spacingLeft=4;spacingRight=4;overflow=hidden;rotatable=0;points=[[0,0.5],[1,0.5]];portConstraint=eastwest;whiteSpace=wrap;html=1;" vertex="1" parent="07gMhgzr5kwWRLjTosJK-31">
          <mxGeometry y="280" width="160" height="70" as="geometry" />
        </mxCell>
        <mxCell id="07gMhgzr5kwWRLjTosJK-111" value="+ RefundOrder(order: Order, client: Client, storekeeper: Storekeeper, courier: Courier): Boolean" style="text;strokeColor=none;fillColor=none;align=left;verticalAlign=top;spacingLeft=4;spacingRight=4;overflow=hidden;rotatable=0;points=[[0,0.5],[1,0.5]];portConstraint=eastwest;whiteSpace=wrap;html=1;" vertex="1" parent="07gMhgzr5kwWRLjTosJK-31">
          <mxGeometry y="350" width="160" height="70" as="geometry" />
        </mxCell>
        <mxCell id="07gMhgzr5kwWRLjTosJK-38" value="DoneStatus" style="swimlane;fontStyle=1;align=center;verticalAlign=top;childLayout=stackLayout;horizontal=1;startSize=26;horizontalStack=0;resizeParent=1;resizeParentMax=0;resizeLast=0;collapsible=1;marginBottom=0;whiteSpace=wrap;html=1;" vertex="1" parent="1">
          <mxGeometry x="720" y="670" width="160" height="420" as="geometry" />
        </mxCell>
        <mxCell id="07gMhgzr5kwWRLjTosJK-39" value="+ name String" style="text;strokeColor=none;fillColor=none;align=left;verticalAlign=top;spacingLeft=4;spacingRight=4;overflow=hidden;rotatable=0;points=[[0,0.5],[1,0.5]];portConstraint=eastwest;whiteSpace=wrap;html=1;" vertex="1" parent="07gMhgzr5kwWRLjTosJK-38">
          <mxGeometry y="26" width="160" height="26" as="geometry" />
        </mxCell>
        <mxCell id="07gMhgzr5kwWRLjTosJK-40" value="" style="line;strokeWidth=1;fillColor=none;align=left;verticalAlign=middle;spacingTop=-1;spacingLeft=3;spacingRight=3;rotatable=0;labelPosition=right;points=[];portConstraint=eastwest;strokeColor=inherit;" vertex="1" parent="07gMhgzr5kwWRLjTosJK-38">
          <mxGeometry y="52" width="160" height="8" as="geometry" />
        </mxCell>
        <mxCell id="07gMhgzr5kwWRLjTosJK-41" value="+ GetName(): string" style="text;strokeColor=none;fillColor=none;align=left;verticalAlign=top;spacingLeft=4;spacingRight=4;overflow=hidden;rotatable=0;points=[[0,0.5],[1,0.5]];portConstraint=eastwest;whiteSpace=wrap;html=1;" vertex="1" parent="07gMhgzr5kwWRLjTosJK-38">
          <mxGeometry y="60" width="160" height="26" as="geometry" />
        </mxCell>
        <mxCell id="07gMhgzr5kwWRLjTosJK-42" value="+ WorkDone(order: Order, client: Client, storekeeper: Storekeeper, courier: Courier): Boolean" style="text;strokeColor=none;fillColor=none;align=left;verticalAlign=top;spacingLeft=4;spacingRight=4;overflow=hidden;rotatable=0;points=[[0,0.5],[1,0.5]];portConstraint=eastwest;whiteSpace=wrap;html=1;" vertex="1" parent="07gMhgzr5kwWRLjTosJK-38">
          <mxGeometry y="86" width="160" height="64" as="geometry" />
        </mxCell>
        <mxCell id="07gMhgzr5kwWRLjTosJK-43" value="+ PayOrder(order: Order, client: Client, storekeeper: Storekeeper, courier: Courier): Boolean" style="text;strokeColor=none;fillColor=none;align=left;verticalAlign=top;spacingLeft=4;spacingRight=4;overflow=hidden;rotatable=0;points=[[0,0.5],[1,0.5]];portConstraint=eastwest;whiteSpace=wrap;html=1;" vertex="1" parent="07gMhgzr5kwWRLjTosJK-38">
          <mxGeometry y="150" width="160" height="60" as="geometry" />
        </mxCell>
        <mxCell id="07gMhgzr5kwWRLjTosJK-44" value="+ CancelOrder(order: Order, client: Client, storekeeper: Storekeeper, courier: Courier): Boolean" style="text;strokeColor=none;fillColor=none;align=left;verticalAlign=top;spacingLeft=4;spacingRight=4;overflow=hidden;rotatable=0;points=[[0,0.5],[1,0.5]];portConstraint=eastwest;whiteSpace=wrap;html=1;" vertex="1" parent="07gMhgzr5kwWRLjTosJK-38">
          <mxGeometry y="210" width="160" height="70" as="geometry" />
        </mxCell>
        <mxCell id="07gMhgzr5kwWRLjTosJK-112" value="+ DelayOrder(order: Order, client: Client, storekeeper: Storekeeper, courier: Courier): Boolean" style="text;strokeColor=none;fillColor=none;align=left;verticalAlign=top;spacingLeft=4;spacingRight=4;overflow=hidden;rotatable=0;points=[[0,0.5],[1,0.5]];portConstraint=eastwest;whiteSpace=wrap;html=1;" vertex="1" parent="07gMhgzr5kwWRLjTosJK-38">
          <mxGeometry y="280" width="160" height="70" as="geometry" />
        </mxCell>
        <mxCell id="07gMhgzr5kwWRLjTosJK-114" value="+ RefundOrder(order: Order, client: Client, storekeeper: Storekeeper, courier: Courier): Boolean" style="text;strokeColor=none;fillColor=none;align=left;verticalAlign=top;spacingLeft=4;spacingRight=4;overflow=hidden;rotatable=0;points=[[0,0.5],[1,0.5]];portConstraint=eastwest;whiteSpace=wrap;html=1;" vertex="1" parent="07gMhgzr5kwWRLjTosJK-38">
          <mxGeometry y="350" width="160" height="70" as="geometry" />
        </mxCell>
        <mxCell id="07gMhgzr5kwWRLjTosJK-45" value="CanceledStatus" style="swimlane;fontStyle=1;align=center;verticalAlign=top;childLayout=stackLayout;horizontal=1;startSize=26;horizontalStack=0;resizeParent=1;resizeParentMax=0;resizeLast=0;collapsible=1;marginBottom=0;whiteSpace=wrap;html=1;" vertex="1" parent="1">
          <mxGeometry x="920" y="670" width="160" height="420" as="geometry" />
        </mxCell>
        <mxCell id="07gMhgzr5kwWRLjTosJK-46" value="+ name String" style="text;strokeColor=none;fillColor=none;align=left;verticalAlign=top;spacingLeft=4;spacingRight=4;overflow=hidden;rotatable=0;points=[[0,0.5],[1,0.5]];portConstraint=eastwest;whiteSpace=wrap;html=1;" vertex="1" parent="07gMhgzr5kwWRLjTosJK-45">
          <mxGeometry y="26" width="160" height="26" as="geometry" />
        </mxCell>
        <mxCell id="07gMhgzr5kwWRLjTosJK-47" value="" style="line;strokeWidth=1;fillColor=none;align=left;verticalAlign=middle;spacingTop=-1;spacingLeft=3;spacingRight=3;rotatable=0;labelPosition=right;points=[];portConstraint=eastwest;strokeColor=inherit;" vertex="1" parent="07gMhgzr5kwWRLjTosJK-45">
          <mxGeometry y="52" width="160" height="8" as="geometry" />
        </mxCell>
        <mxCell id="07gMhgzr5kwWRLjTosJK-48" value="+ GetName(): string" style="text;strokeColor=none;fillColor=none;align=left;verticalAlign=top;spacingLeft=4;spacingRight=4;overflow=hidden;rotatable=0;points=[[0,0.5],[1,0.5]];portConstraint=eastwest;whiteSpace=wrap;html=1;" vertex="1" parent="07gMhgzr5kwWRLjTosJK-45">
          <mxGeometry y="60" width="160" height="26" as="geometry" />
        </mxCell>
        <mxCell id="07gMhgzr5kwWRLjTosJK-49" value="+ WorkDone(order: Order, client: Client, storekeeper: Storekeeper, courier: Courier: Boolean" style="text;strokeColor=none;fillColor=none;align=left;verticalAlign=top;spacingLeft=4;spacingRight=4;overflow=hidden;rotatable=0;points=[[0,0.5],[1,0.5]];portConstraint=eastwest;whiteSpace=wrap;html=1;" vertex="1" parent="07gMhgzr5kwWRLjTosJK-45">
          <mxGeometry y="86" width="160" height="64" as="geometry" />
        </mxCell>
        <mxCell id="07gMhgzr5kwWRLjTosJK-50" value="+ PayOrder(order: Order, client: Client, storekeeper: Storekeeper, courier: Courier): Boolean" style="text;strokeColor=none;fillColor=none;align=left;verticalAlign=top;spacingLeft=4;spacingRight=4;overflow=hidden;rotatable=0;points=[[0,0.5],[1,0.5]];portConstraint=eastwest;whiteSpace=wrap;html=1;" vertex="1" parent="07gMhgzr5kwWRLjTosJK-45">
          <mxGeometry y="150" width="160" height="60" as="geometry" />
        </mxCell>
        <mxCell id="07gMhgzr5kwWRLjTosJK-51" value="+ CancelOrder(order: Order, client: Client, storekeeper: Storekeeper, courier: Courier): Boolean" style="text;strokeColor=none;fillColor=none;align=left;verticalAlign=top;spacingLeft=4;spacingRight=4;overflow=hidden;rotatable=0;points=[[0,0.5],[1,0.5]];portConstraint=eastwest;whiteSpace=wrap;html=1;" vertex="1" parent="07gMhgzr5kwWRLjTosJK-45">
          <mxGeometry y="210" width="160" height="70" as="geometry" />
        </mxCell>
        <mxCell id="07gMhgzr5kwWRLjTosJK-115" value="+ DelayOrder(order: Order, client: Client, storekeeper: Storekeeper, courier: Courier): Boolean" style="text;strokeColor=none;fillColor=none;align=left;verticalAlign=top;spacingLeft=4;spacingRight=4;overflow=hidden;rotatable=0;points=[[0,0.5],[1,0.5]];portConstraint=eastwest;whiteSpace=wrap;html=1;" vertex="1" parent="07gMhgzr5kwWRLjTosJK-45">
          <mxGeometry y="280" width="160" height="70" as="geometry" />
        </mxCell>
        <mxCell id="07gMhgzr5kwWRLjTosJK-116" value="+ RefundOrder(order: Order, client: Client, storekeeper: Storekeeper, courier: Courier): Boolean" style="text;strokeColor=none;fillColor=none;align=left;verticalAlign=top;spacingLeft=4;spacingRight=4;overflow=hidden;rotatable=0;points=[[0,0.5],[1,0.5]];portConstraint=eastwest;whiteSpace=wrap;html=1;" vertex="1" parent="07gMhgzr5kwWRLjTosJK-45">
          <mxGeometry y="350" width="160" height="70" as="geometry" />
        </mxCell>
        <mxCell id="07gMhgzr5kwWRLjTosJK-52" value="" style="endArrow=open;endFill=1;endSize=12;html=1;rounded=0;exitX=1;exitY=0.056;exitDx=0;exitDy=0;exitPerimeter=0;entryX=0.006;entryY=0.067;entryDx=0;entryDy=0;entryPerimeter=0;" edge="1" parent="1" source="07gMhgzr5kwWRLjTosJK-1" target="07gMhgzr5kwWRLjTosJK-11">
          <mxGeometry width="160" relative="1" as="geometry">
            <mxPoint x="500" y="250" as="sourcePoint" />
            <mxPoint x="660" y="250" as="targetPoint" />
          </mxGeometry>
        </mxCell>
        <mxCell id="07gMhgzr5kwWRLjTosJK-53" value="" style="group" vertex="1" connectable="0" parent="1">
          <mxGeometry x="200" y="630" width="800" height="40" as="geometry" />
        </mxCell>
        <mxCell id="07gMhgzr5kwWRLjTosJK-54" value="" style="group" vertex="1" connectable="0" parent="07gMhgzr5kwWRLjTosJK-53">
          <mxGeometry width="800" height="40" as="geometry" />
        </mxCell>
        <mxCell id="07gMhgzr5kwWRLjTosJK-55" value="" style="endArrow=none;html=1;rounded=0;exitX=0.5;exitY=0;exitDx=0;exitDy=0;entryX=0.5;entryY=0;entryDx=0;entryDy=0;" edge="1" parent="07gMhgzr5kwWRLjTosJK-54" source="07gMhgzr5kwWRLjTosJK-17" target="07gMhgzr5kwWRLjTosJK-45">
          <mxGeometry width="50" height="50" relative="1" as="geometry">
            <mxPoint as="sourcePoint" />
            <mxPoint x="800" as="targetPoint" />
            <Array as="points">
              <mxPoint />
              <mxPoint x="400" />
              <mxPoint x="800" />
            </Array>
          </mxGeometry>
        </mxCell>
        <mxCell id="07gMhgzr5kwWRLjTosJK-56" value="" style="endArrow=none;html=1;rounded=0;exitX=0.5;exitY=0;exitDx=0;exitDy=0;" edge="1" parent="07gMhgzr5kwWRLjTosJK-54" source="07gMhgzr5kwWRLjTosJK-24">
          <mxGeometry width="50" height="50" relative="1" as="geometry">
            <mxPoint x="70" y="40" as="sourcePoint" />
            <mxPoint x="200" as="targetPoint" />
          </mxGeometry>
        </mxCell>
        <mxCell id="07gMhgzr5kwWRLjTosJK-57" value="" style="endArrow=none;html=1;rounded=0;exitX=0.5;exitY=0;exitDx=0;exitDy=0;" edge="1" parent="07gMhgzr5kwWRLjTosJK-54">
          <mxGeometry width="50" height="50" relative="1" as="geometry">
            <mxPoint x="599.5" y="40" as="sourcePoint" />
            <mxPoint x="599.5" as="targetPoint" />
          </mxGeometry>
        </mxCell>
        <mxCell id="07gMhgzr5kwWRLjTosJK-58" value="" style="endArrow=block;endFill=0;endSize=12;html=1;rounded=0;exitX=0.5;exitY=0;exitDx=0;exitDy=0;entryX=0.5;entryY=1.077;entryDx=0;entryDy=0;entryPerimeter=0;" edge="1" parent="07gMhgzr5kwWRLjTosJK-53" source="07gMhgzr5kwWRLjTosJK-31" target="07gMhgzr5kwWRLjTosJK-16">
          <mxGeometry width="160" relative="1" as="geometry">
            <mxPoint x="310" y="-60" as="sourcePoint" />
            <mxPoint x="410" y="-170" as="targetPoint" />
          </mxGeometry>
        </mxCell>
        <mxCell id="07gMhgzr5kwWRLjTosJK-59" value="status" style="text;html=1;align=center;verticalAlign=middle;whiteSpace=wrap;rounded=0;" vertex="1" parent="1">
          <mxGeometry x="440" y="260" width="60" height="30" as="geometry" />
        </mxCell>
        <mxCell id="07gMhgzr5kwWRLjTosJK-60" value="Client" style="swimlane;fontStyle=1;align=center;verticalAlign=top;childLayout=stackLayout;horizontal=1;startSize=26;horizontalStack=0;resizeParent=1;resizeParentMax=0;resizeLast=0;collapsible=1;marginBottom=0;whiteSpace=wrap;html=1;" vertex="1" parent="1">
          <mxGeometry x="-480" y="280" width="160" height="60" as="geometry" />
        </mxCell>
        <mxCell id="07gMhgzr5kwWRLjTosJK-61" value="+ message: String" style="text;strokeColor=none;fillColor=none;align=left;verticalAlign=top;spacingLeft=4;spacingRight=4;overflow=hidden;rotatable=0;points=[[0,0.5],[1,0.5]];portConstraint=eastwest;whiteSpace=wrap;html=1;" vertex="1" parent="07gMhgzr5kwWRLjTosJK-60">
          <mxGeometry y="26" width="160" height="26" as="geometry" />
        </mxCell>
        <mxCell id="07gMhgzr5kwWRLjTosJK-62" value="" style="line;strokeWidth=1;fillColor=none;align=left;verticalAlign=middle;spacingTop=-1;spacingLeft=3;spacingRight=3;rotatable=0;labelPosition=right;points=[];portConstraint=eastwest;strokeColor=inherit;" vertex="1" parent="07gMhgzr5kwWRLjTosJK-60">
          <mxGeometry y="52" width="160" height="8" as="geometry" />
        </mxCell>
        <mxCell id="07gMhgzr5kwWRLjTosJK-63" value="Storekeeper" style="swimlane;fontStyle=1;align=center;verticalAlign=top;childLayout=stackLayout;horizontal=1;startSize=26;horizontalStack=0;resizeParent=1;resizeParentMax=0;resizeLast=0;collapsible=1;marginBottom=0;whiteSpace=wrap;html=1;" vertex="1" parent="1">
          <mxGeometry x="-280" y="280" width="160" height="60" as="geometry" />
        </mxCell>
        <mxCell id="07gMhgzr5kwWRLjTosJK-64" value="+ message: String" style="text;strokeColor=none;fillColor=none;align=left;verticalAlign=top;spacingLeft=4;spacingRight=4;overflow=hidden;rotatable=0;points=[[0,0.5],[1,0.5]];portConstraint=eastwest;whiteSpace=wrap;html=1;" vertex="1" parent="07gMhgzr5kwWRLjTosJK-63">
          <mxGeometry y="26" width="160" height="26" as="geometry" />
        </mxCell>
        <mxCell id="07gMhgzr5kwWRLjTosJK-65" value="" style="line;strokeWidth=1;fillColor=none;align=left;verticalAlign=middle;spacingTop=-1;spacingLeft=3;spacingRight=3;rotatable=0;labelPosition=right;points=[];portConstraint=eastwest;strokeColor=inherit;" vertex="1" parent="07gMhgzr5kwWRLjTosJK-63">
          <mxGeometry y="52" width="160" height="8" as="geometry" />
        </mxCell>
        <mxCell id="07gMhgzr5kwWRLjTosJK-66" value="Courier" style="swimlane;fontStyle=1;align=center;verticalAlign=top;childLayout=stackLayout;horizontal=1;startSize=26;horizontalStack=0;resizeParent=1;resizeParentMax=0;resizeLast=0;collapsible=1;marginBottom=0;whiteSpace=wrap;html=1;" vertex="1" parent="1">
          <mxGeometry x="-80" y="280" width="160" height="60" as="geometry" />
        </mxCell>
        <mxCell id="07gMhgzr5kwWRLjTosJK-67" value="+ message: String" style="text;strokeColor=none;fillColor=none;align=left;verticalAlign=top;spacingLeft=4;spacingRight=4;overflow=hidden;rotatable=0;points=[[0,0.5],[1,0.5]];portConstraint=eastwest;whiteSpace=wrap;html=1;" vertex="1" parent="07gMhgzr5kwWRLjTosJK-66">
          <mxGeometry y="26" width="160" height="26" as="geometry" />
        </mxCell>
        <mxCell id="07gMhgzr5kwWRLjTosJK-68" value="" style="line;strokeWidth=1;fillColor=none;align=left;verticalAlign=middle;spacingTop=-1;spacingLeft=3;spacingRight=3;rotatable=0;labelPosition=right;points=[];portConstraint=eastwest;strokeColor=inherit;" vertex="1" parent="07gMhgzr5kwWRLjTosJK-66">
          <mxGeometry y="52" width="160" height="8" as="geometry" />
        </mxCell>
        <mxCell id="07gMhgzr5kwWRLjTosJK-69" value="orders" style="text;html=1;align=center;verticalAlign=middle;resizable=0;points=[];autosize=1;strokeColor=none;fillColor=none;" vertex="1" parent="1">
          <mxGeometry x="60" y="470" width="60" height="30" as="geometry" />
        </mxCell>
        <mxCell id="07gMhgzr5kwWRLjTosJK-70" value="Form1" style="rounded=0;whiteSpace=wrap;html=1;" vertex="1" parent="1">
          <mxGeometry x="-260" y="140" width="120" height="60" as="geometry" />
        </mxCell>
        <mxCell id="07gMhgzr5kwWRLjTosJK-71" value="client" style="text;html=1;align=center;verticalAlign=middle;resizable=0;points=[];autosize=1;strokeColor=none;fillColor=none;" vertex="1" parent="1">
          <mxGeometry x="-400" y="240" width="50" height="30" as="geometry" />
        </mxCell>
        <mxCell id="07gMhgzr5kwWRLjTosJK-72" value="storekeeper" style="text;html=1;align=center;verticalAlign=middle;resizable=0;points=[];autosize=1;strokeColor=none;fillColor=none;" vertex="1" parent="1">
          <mxGeometry x="-200" y="240" width="90" height="30" as="geometry" />
        </mxCell>
        <mxCell id="07gMhgzr5kwWRLjTosJK-73" value="courier" style="text;html=1;align=center;verticalAlign=middle;resizable=0;points=[];autosize=1;strokeColor=none;fillColor=none;" vertex="1" parent="1">
          <mxGeometry y="240" width="60" height="30" as="geometry" />
        </mxCell>
        <mxCell id="07gMhgzr5kwWRLjTosJK-74" value="" style="endArrow=open;endFill=1;endSize=12;html=1;rounded=0;exitX=0.5;exitY=1;exitDx=0;exitDy=0;entryX=0.5;entryY=0;entryDx=0;entryDy=0;" edge="1" parent="1" source="07gMhgzr5kwWRLjTosJK-70" target="07gMhgzr5kwWRLjTosJK-63">
          <mxGeometry width="160" relative="1" as="geometry">
            <mxPoint x="-200" y="240" as="sourcePoint" />
            <mxPoint x="-40" y="240" as="targetPoint" />
          </mxGeometry>
        </mxCell>
        <mxCell id="07gMhgzr5kwWRLjTosJK-75" value="" style="endArrow=open;endFill=1;endSize=12;html=1;rounded=0;exitX=0;exitY=0.5;exitDx=0;exitDy=0;entryX=0.5;entryY=0;entryDx=0;entryDy=0;" edge="1" parent="1" source="07gMhgzr5kwWRLjTosJK-70" target="07gMhgzr5kwWRLjTosJK-60">
          <mxGeometry width="160" relative="1" as="geometry">
            <mxPoint x="-400.34000000000003" y="180" as="sourcePoint" />
            <mxPoint x="-400.34000000000003" y="260" as="targetPoint" />
            <Array as="points">
              <mxPoint x="-400" y="170" />
            </Array>
          </mxGeometry>
        </mxCell>
        <mxCell id="07gMhgzr5kwWRLjTosJK-76" value="" style="endArrow=open;endFill=1;endSize=12;html=1;rounded=0;exitX=1;exitY=0.5;exitDx=0;exitDy=0;entryX=0.5;entryY=0;entryDx=0;entryDy=0;" edge="1" parent="1" source="07gMhgzr5kwWRLjTosJK-70" target="07gMhgzr5kwWRLjTosJK-66">
          <mxGeometry width="160" relative="1" as="geometry">
            <mxPoint y="170" as="sourcePoint" />
            <mxPoint y="250" as="targetPoint" />
            <Array as="points">
              <mxPoint y="170" />
            </Array>
          </mxGeometry>
        </mxCell>
        <mxCell id="07gMhgzr5kwWRLjTosJK-77" value="" style="group" vertex="1" connectable="0" parent="1">
          <mxGeometry x="-400" y="500" width="400" as="geometry" />
        </mxCell>
        <mxCell id="07gMhgzr5kwWRLjTosJK-78" value="" style="endArrow=diamondThin;endFill=0;endSize=24;html=1;rounded=0;entryX=0.5;entryY=1;entryDx=0;entryDy=0;" edge="1" parent="07gMhgzr5kwWRLjTosJK-77" target="07gMhgzr5kwWRLjTosJK-63">
          <mxGeometry width="160" relative="1" as="geometry">
            <mxPoint x="200" as="sourcePoint" />
            <mxPoint x="290" y="-15.340000000000032" as="targetPoint" />
          </mxGeometry>
        </mxCell>
        <mxCell id="07gMhgzr5kwWRLjTosJK-79" value="" style="endArrow=diamondThin;endFill=0;endSize=24;html=1;rounded=0;entryX=0.5;entryY=1;entryDx=0;entryDy=0;" edge="1" parent="07gMhgzr5kwWRLjTosJK-77" target="07gMhgzr5kwWRLjTosJK-60">
          <mxGeometry width="160" relative="1" as="geometry">
            <mxPoint as="sourcePoint" />
            <mxPoint x="-0.34000000000003183" y="-150" as="targetPoint" />
          </mxGeometry>
        </mxCell>
        <mxCell id="07gMhgzr5kwWRLjTosJK-80" value="" style="endArrow=diamondThin;endFill=0;endSize=24;html=1;rounded=0;entryX=0.5;entryY=1;entryDx=0;entryDy=0;" edge="1" parent="07gMhgzr5kwWRLjTosJK-77" target="07gMhgzr5kwWRLjTosJK-66">
          <mxGeometry width="160" relative="1" as="geometry">
            <mxPoint x="400" as="sourcePoint" />
            <mxPoint x="400" y="-150" as="targetPoint" />
          </mxGeometry>
        </mxCell>
        <mxCell id="07gMhgzr5kwWRLjTosJK-81" value="" style="endArrow=none;html=1;rounded=0;entryX=-0.003;entryY=0.041;entryDx=0;entryDy=0;entryPerimeter=0;" edge="1" parent="07gMhgzr5kwWRLjTosJK-77" target="07gMhgzr5kwWRLjTosJK-9">
          <mxGeometry width="50" height="50" relative="1" as="geometry">
            <mxPoint as="sourcePoint" />
            <mxPoint x="500" y="40" as="targetPoint" />
          </mxGeometry>
        </mxCell>
        <mxCell id="07gMhgzr5kwWRLjTosJK-82" value="" style="endArrow=none;dashed=1;html=1;rounded=0;entryX=0.255;entryY=1.02;entryDx=0;entryDy=0;entryPerimeter=0;" edge="1" parent="1" target="07gMhgzr5kwWRLjTosJK-23">
          <mxGeometry width="50" height="50" relative="1" as="geometry">
            <mxPoint x="160" y="1160" as="sourcePoint" />
            <mxPoint x="170" y="1119" as="targetPoint" />
          </mxGeometry>
        </mxCell>
        <mxCell id="07gMhgzr5kwWRLjTosJK-83" value="" style="endArrow=none;dashed=1;html=1;rounded=0;" edge="1" parent="1">
          <mxGeometry width="50" height="50" relative="1" as="geometry">
            <mxPoint x="561" y="1160" as="sourcePoint" />
            <mxPoint x="562" y="1094" as="targetPoint" />
          </mxGeometry>
        </mxCell>
        <mxCell id="07gMhgzr5kwWRLjTosJK-84" value="" style="endArrow=open;endSize=12;dashed=1;html=1;rounded=0;entryX=0.25;entryY=1;entryDx=0;entryDy=0;" edge="1" parent="1" target="07gMhgzr5kwWRLjTosJK-60">
          <mxGeometry width="160" relative="1" as="geometry">
            <mxPoint x="960" y="1160" as="sourcePoint" />
            <mxPoint x="-180" y="1060" as="targetPoint" />
            <Array as="points">
              <mxPoint x="-440" y="1160" />
            </Array>
          </mxGeometry>
        </mxCell>
        <mxCell id="07gMhgzr5kwWRLjTosJK-85" value="" style="endArrow=none;dashed=1;html=1;rounded=0;entryX=0.25;entryY=1.014;entryDx=0;entryDy=0;entryPerimeter=0;" edge="1" parent="1" target="07gMhgzr5kwWRLjTosJK-116">
          <mxGeometry width="50" height="50" relative="1" as="geometry">
            <mxPoint x="962" y="1158" as="sourcePoint" />
            <mxPoint x="970" y="1110" as="targetPoint" />
          </mxGeometry>
        </mxCell>
        <mxCell id="07gMhgzr5kwWRLjTosJK-86" value="" style="endArrow=none;dashed=1;html=1;rounded=0;entryX=0.413;entryY=1.057;entryDx=0;entryDy=0;entryPerimeter=0;" edge="1" parent="1" target="07gMhgzr5kwWRLjTosJK-109">
          <mxGeometry width="50" height="50" relative="1" as="geometry">
            <mxPoint x="386" y="1200" as="sourcePoint" />
            <mxPoint x="420" y="1130" as="targetPoint" />
          </mxGeometry>
        </mxCell>
        <mxCell id="07gMhgzr5kwWRLjTosJK-87" value="" style="endArrow=none;dashed=1;html=1;rounded=0;entryX=0.438;entryY=1.043;entryDx=0;entryDy=0;entryPerimeter=0;" edge="1" parent="1" target="07gMhgzr5kwWRLjTosJK-114">
          <mxGeometry width="50" height="50" relative="1" as="geometry">
            <mxPoint x="789" y="1198" as="sourcePoint" />
            <mxPoint x="790" y="1300" as="targetPoint" />
          </mxGeometry>
        </mxCell>
        <mxCell id="07gMhgzr5kwWRLjTosJK-88" value="" style="endArrow=none;dashed=1;html=1;rounded=0;entryX=0.43;entryY=0.998;entryDx=0;entryDy=0;entryPerimeter=0;" edge="1" parent="1" target="07gMhgzr5kwWRLjTosJK-23">
          <mxGeometry width="50" height="50" relative="1" as="geometry">
            <mxPoint x="187" y="1200" as="sourcePoint" />
            <mxPoint x="188" y="1061" as="targetPoint" />
          </mxGeometry>
        </mxCell>
        <mxCell id="07gMhgzr5kwWRLjTosJK-89" value="" style="endArrow=none;dashed=1;html=1;rounded=0;entryX=0.425;entryY=1.043;entryDx=0;entryDy=0;entryPerimeter=0;" edge="1" parent="1" target="07gMhgzr5kwWRLjTosJK-111">
          <mxGeometry width="50" height="50" relative="1" as="geometry">
            <mxPoint x="588" y="1200" as="sourcePoint" />
            <mxPoint x="570" y="1070" as="targetPoint" />
          </mxGeometry>
        </mxCell>
        <mxCell id="07gMhgzr5kwWRLjTosJK-90" value="" style="endArrow=open;endSize=12;dashed=1;html=1;rounded=0;entryX=0.25;entryY=1;entryDx=0;entryDy=0;" edge="1" parent="1" target="07gMhgzr5kwWRLjTosJK-63">
          <mxGeometry width="160" relative="1" as="geometry">
            <mxPoint x="987" y="1200" as="sourcePoint" />
            <mxPoint x="-413" y="380" as="targetPoint" />
            <Array as="points">
              <mxPoint x="-240" y="1210" />
            </Array>
          </mxGeometry>
        </mxCell>
        <mxCell id="07gMhgzr5kwWRLjTosJK-91" value="" style="endArrow=none;dashed=1;html=1;rounded=0;entryX=0.425;entryY=0.986;entryDx=0;entryDy=0;entryPerimeter=0;" edge="1" parent="1" target="07gMhgzr5kwWRLjTosJK-116">
          <mxGeometry width="50" height="50" relative="1" as="geometry">
            <mxPoint x="989" y="1198" as="sourcePoint" />
            <mxPoint x="989" y="1100" as="targetPoint" />
          </mxGeometry>
        </mxCell>
        <mxCell id="07gMhgzr5kwWRLjTosJK-92" value="" style="endArrow=open;endSize=12;dashed=1;html=1;rounded=0;entryX=0;entryY=0.5;entryDx=0;entryDy=0;" edge="1" parent="1" target="07gMhgzr5kwWRLjTosJK-10">
          <mxGeometry width="160" relative="1" as="geometry">
            <mxPoint x="940" y="1120" as="sourcePoint" />
            <mxPoint x="-120" y="830" as="targetPoint" />
            <Array as="points">
              <mxPoint x="470" y="1120" />
              <mxPoint y="1120" />
              <mxPoint y="585" />
            </Array>
          </mxGeometry>
        </mxCell>
        <mxCell id="07gMhgzr5kwWRLjTosJK-93" value="" style="endArrow=none;dashed=1;html=1;rounded=0;entryX=0.127;entryY=1.032;entryDx=0;entryDy=0;entryPerimeter=0;" edge="1" parent="1" target="07gMhgzr5kwWRLjTosJK-23">
          <mxGeometry width="50" height="50" relative="1" as="geometry">
            <mxPoint x="140" y="1120" as="sourcePoint" />
            <mxPoint x="140" y="1080" as="targetPoint" />
          </mxGeometry>
        </mxCell>
        <mxCell id="07gMhgzr5kwWRLjTosJK-94" value="" style="endArrow=none;dashed=1;html=1;rounded=0;" edge="1" parent="1">
          <mxGeometry width="50" height="50" relative="1" as="geometry">
            <mxPoint x="340" y="1120" as="sourcePoint" />
            <mxPoint x="341" y="1090" as="targetPoint" />
          </mxGeometry>
        </mxCell>
        <mxCell id="07gMhgzr5kwWRLjTosJK-95" value="" style="endArrow=none;dashed=1;html=1;rounded=0;entryX=0.131;entryY=1;entryDx=0;entryDy=0;entryPerimeter=0;" edge="1" parent="1" target="07gMhgzr5kwWRLjTosJK-111">
          <mxGeometry width="50" height="50" relative="1" as="geometry">
            <mxPoint x="540" y="1120" as="sourcePoint" />
            <mxPoint x="530" y="1090" as="targetPoint" />
          </mxGeometry>
        </mxCell>
        <mxCell id="07gMhgzr5kwWRLjTosJK-96" value="" style="endArrow=none;dashed=1;html=1;rounded=0;entryX=0.125;entryY=1.057;entryDx=0;entryDy=0;entryPerimeter=0;" edge="1" parent="1" target="07gMhgzr5kwWRLjTosJK-114">
          <mxGeometry width="50" height="50" relative="1" as="geometry">
            <mxPoint x="740" y="1120" as="sourcePoint" />
            <mxPoint x="730" y="1300" as="targetPoint" />
          </mxGeometry>
        </mxCell>
        <mxCell id="07gMhgzr5kwWRLjTosJK-97" value="" style="endArrow=none;dashed=1;html=1;rounded=0;" edge="1" parent="1">
          <mxGeometry width="50" height="50" relative="1" as="geometry">
            <mxPoint x="940" y="1120" as="sourcePoint" />
            <mxPoint x="940" y="1090" as="targetPoint" />
          </mxGeometry>
        </mxCell>
        <mxCell id="07gMhgzr5kwWRLjTosJK-98" value="" style="endArrow=none;dashed=1;html=1;rounded=0;entryX=0.238;entryY=0.986;entryDx=0;entryDy=0;entryPerimeter=0;" edge="1" parent="1" target="07gMhgzr5kwWRLjTosJK-109">
          <mxGeometry width="50" height="50" relative="1" as="geometry">
            <mxPoint x="359" y="1160" as="sourcePoint" />
            <mxPoint x="359" y="1100" as="targetPoint" />
          </mxGeometry>
        </mxCell>
        <mxCell id="07gMhgzr5kwWRLjTosJK-99" value="" style="endArrow=none;dashed=1;html=1;rounded=0;entryX=0.269;entryY=1;entryDx=0;entryDy=0;entryPerimeter=0;" edge="1" parent="1" target="07gMhgzr5kwWRLjTosJK-114">
          <mxGeometry width="50" height="50" relative="1" as="geometry">
            <mxPoint x="762" y="1158" as="sourcePoint" />
            <mxPoint x="764" y="1280" as="targetPoint" />
          </mxGeometry>
        </mxCell>
        <mxCell id="07gMhgzr5kwWRLjTosJK-100" value="" style="endArrow=none;dashed=1;html=1;rounded=0;entryX=0.625;entryY=1.057;entryDx=0;entryDy=0;entryPerimeter=0;" edge="1" parent="1" target="07gMhgzr5kwWRLjTosJK-109">
          <mxGeometry width="50" height="50" relative="1" as="geometry">
            <mxPoint x="419" y="1240" as="sourcePoint" />
            <mxPoint x="510" y="1120" as="targetPoint" />
          </mxGeometry>
        </mxCell>
        <mxCell id="07gMhgzr5kwWRLjTosJK-101" value="" style="endArrow=none;dashed=1;html=1;rounded=0;entryX=0.613;entryY=1.043;entryDx=0;entryDy=0;entryPerimeter=0;" edge="1" parent="1" target="07gMhgzr5kwWRLjTosJK-114">
          <mxGeometry width="50" height="50" relative="1" as="geometry">
            <mxPoint x="820" y="1250" as="sourcePoint" />
            <mxPoint x="818" y="1300" as="targetPoint" />
          </mxGeometry>
        </mxCell>
        <mxCell id="07gMhgzr5kwWRLjTosJK-102" value="" style="endArrow=none;dashed=1;html=1;rounded=0;entryX=0.625;entryY=1.029;entryDx=0;entryDy=0;entryPerimeter=0;" edge="1" parent="1" target="07gMhgzr5kwWRLjTosJK-23">
          <mxGeometry width="50" height="50" relative="1" as="geometry">
            <mxPoint x="221" y="1240" as="sourcePoint" />
            <mxPoint x="221" y="1021" as="targetPoint" />
          </mxGeometry>
        </mxCell>
        <mxCell id="07gMhgzr5kwWRLjTosJK-103" value="" style="endArrow=none;dashed=1;html=1;rounded=0;entryX=0.613;entryY=1.071;entryDx=0;entryDy=0;entryPerimeter=0;" edge="1" parent="1" target="07gMhgzr5kwWRLjTosJK-111">
          <mxGeometry width="50" height="50" relative="1" as="geometry">
            <mxPoint x="619" y="1240" as="sourcePoint" />
            <mxPoint x="650" y="1070" as="targetPoint" />
          </mxGeometry>
        </mxCell>
        <mxCell id="07gMhgzr5kwWRLjTosJK-104" value="" style="endArrow=open;endSize=12;dashed=1;html=1;rounded=0;entryX=0.25;entryY=1;entryDx=0;entryDy=0;" edge="1" parent="1" target="07gMhgzr5kwWRLjTosJK-66">
          <mxGeometry width="160" relative="1" as="geometry">
            <mxPoint x="1020" y="1250" as="sourcePoint" />
            <mxPoint x="-380" y="340" as="targetPoint" />
            <Array as="points">
              <mxPoint x="-40" y="1250" />
            </Array>
          </mxGeometry>
        </mxCell>
        <mxCell id="07gMhgzr5kwWRLjTosJK-105" value="" style="endArrow=none;dashed=1;html=1;rounded=0;" edge="1" parent="1">
          <mxGeometry width="50" height="50" relative="1" as="geometry">
            <mxPoint x="1020" y="1250" as="sourcePoint" />
            <mxPoint x="1020" y="1090" as="targetPoint" />
          </mxGeometry>
        </mxCell>
      </root>
    </mxGraphModel>
  </diagram>
</mxfile>
